<svg xmlns="http://www.w3.org/2000/svg" viewBox="0 0 250.488 250.488" width="128" height="128"><path d="M237.484 22.587c-3.266 0-7.591-.401-11.072 2.005l-92.264 77.91v-65.25c0-2.507.057-14.666-13.004-14.666-3.265 0-7.59-.401-11.072 2.005L8.107 110.693C-1.562 117.367.11 125.244.11 125.244s-1.671 7.878 7.997 14.551l101.965 86.102c3.482 2.405 7.807 2.004 11.072 2.004 13.062 0 13.004-11.7 13.004-14.666v-65.249l92.264 77.911c3.482 2.405 7.807 2.004 11.072 2.004 13.062 0 13.004-11.7 13.004-14.666V37.252c0-2.506.058-14.665-13.004-14.665z" fill="#1EABFF" fill-rule="evenodd" clip-rule="evenodd"/></svg>