<svg xmlns="http://www.w3.org/2000/svg" viewBox="0 0 250.488 250.488" width="128" height="128"><path d="M242.381 110.693L140.415 24.591c-3.48-2.406-7.805-2.005-11.071-2.005-13.061 0-13.003 11.7-13.003 14.666v65.249l-92.265-77.91c-3.482-2.406-7.807-2.005-11.072-2.005C-.057 22.587 0 34.287 0 37.252v175.983c0 2.507-.057 14.666 13.004 14.666 3.265 0 7.59.401 11.072-2.005l92.265-77.91v65.249c0 2.507-.058 14.666 13.003 14.666 3.266 0 7.591.401 11.071-2.005l101.966-86.101c9.668-6.675 7.997-14.551 7.997-14.551s1.671-7.877-7.997-14.551z" fill="#1EABFF" fill-rule="evenodd" clip-rule="evenodd"/></svg>